<!DOCTYPE svg PUBLIC "-//W3C//DTD SVG 1.1//EN" "http://www.w3.org/Graphics/SVG/1.1/DTD/svg11.dtd">
<!-- Uploaded to: SVG Repo, www.svgrepo.com, Transformed by: SVG Repo Mixer Tools -->
<svg height="800px" width="800px" version="1.1" id="Layer_1" xmlns="http://www.w3.org/2000/svg" xmlns:xlink="http://www.w3.org/1999/xlink" viewBox="-51.2 -51.2 614.40 614.40" xml:space="preserve" fill="#000000" stroke="#000000" stroke-width="0.00512" transform="matrix(1, 0, 0, 1, 0, 0)">
<g id="SVGRepo_bgCarrier" stroke-width="0"/>
<g id="SVGRepo_tracerCarrier" stroke-linecap="round" stroke-linejoin="round" stroke="#CCCCCC" stroke-width="15.36"/>
<g id="SVGRepo_iconCarrier"> <path style="fill:#668E2F;" d="M510.86,231.391c-2.74-8.425-10.021-14.566-18.787-15.839l-41.494-6.028l-18.559-37.601 c-3.921-7.944-12.012-12.972-20.869-12.972c-8.861,0-16.949,5.028-20.869,12.972l-18.558,37.601l-41.491,6.028 c-8.766,1.275-16.052,7.415-18.787,15.839c-2.74,8.425-0.458,17.673,5.888,23.858l30.025,29.269l-7.087,41.328 c-1.497,8.73,2.095,17.554,9.261,22.761c7.166,5.205,16.663,5.894,24.509,1.773l37.112-19.512l37.115,19.512 c3.406,1.79,7.125,2.673,10.828,2.673c0.025,0,0.048,0,0.07,0c12.836-0.022,23.237-10.434,23.237-23.273 c0-1.787-0.203-3.527-0.582-5.201l-6.873-40.06l30.028-29.269C511.314,249.063,513.595,239.815,510.86,231.391z"/> <path style="fill:#7AA937;" d="M386.341,422.582c-12.176,2.711-24.706,4.085-37.249,4.085c-94.106,0-170.667-76.561-170.667-170.667 S254.987,85.333,349.092,85.333c12.527,0,25.06,1.376,37.252,4.088c2.191,0.487,4.394,0.649,6.54,0.51 c12.176-0.749,21.819-10.864,21.819-23.229c0-8.164-4.203-15.346-10.564-19.498C360.684,16.32,309.484,0,256.001,0 c-141.16,0-256,114.843-256,256s114.84,256,256,256c53.817,0,105.325-16.524,148.952-47.785c8.991-6.44,12.203-18.319,7.691-28.416 C408.129,425.703,397.147,420.181,386.341,422.582z"/> <g> <path style="fill:#668E2F;" d="M349.092,85.333c12.527,0,25.06,1.376,37.252,4.088c2.191,0.487,4.394,0.649,6.54,0.51 c12.176-0.749,21.819-10.864,21.819-23.229c0-8.164-4.203-15.346-10.564-19.498C360.684,16.32,309.484,0,256.001,0v113.029 C282.793,95.524,314.771,85.333,349.092,85.333z"/> <path style="fill:#668E2F;" d="M386.341,422.582c-12.176,2.711-24.706,4.085-37.249,4.085c-34.321,0-66.299-10.19-93.091-27.696 V512c53.817,0,105.325-16.524,148.952-47.785c8.991-6.44,12.203-18.319,7.691-28.416 C408.129,425.703,397.147,420.181,386.341,422.582z"/> </g> </g>
</svg>